<?xml version="1.0" encoding="utf-8"?>
<!-- Generator: Adobe Illustrator 14.0.0, SVG Export Plug-In . SVG Version: 6.00 Build 43363)  -->
<!DOCTYPE svg PUBLIC "-//W3C//DTD SVG 1.1//EN" "http://www.w3.org/Graphics/SVG/1.1/DTD/svg11.dtd">
<svg version="1.1" id="Layer_1" xmlns="http://www.w3.org/2000/svg" xmlns:xlink="http://www.w3.org/1999/xlink" x="0px" y="0px"
	 width="600px" height="600px" viewBox="0 0 600 600" enable-background="new 0 0 600 600" xml:space="preserve">
<path fill="#4B4B4B" enable-background="new    " d="M282,0c11.667,0,23.333,0,35,0c130.051,13.864,215.085,81.643,258,183
	c21.997,51.953,31.43,119.543,15,187c-14.254,58.524-41.43,103.429-79,141c-36.795,36.796-83.923,66.363-141,80
	c-62.318,14.89-134.161,6.869-188-16C82.757,532.846,13.319,445.997,0,317c0-11.667,0-23.333,0-35
	c3.213-38.503,13.552-79.994,29-112C74.821,75.064,159.44,12.942,282,0z M298,135c-12.445-30.801-26.511-69.051-50-87
	c-4.083-3.121-7.26-6.369-11-7c-12.392-2.091-27.722,4.643-33,9c-25.549,21.091-10.035,72.041-2,99
	c7.974,26.752,15.436,51.285,24,76c4.612,13.309,8.696,26.031,13,37c-13.415-8.213-34.372-9.154-46-2
	c-12.93,7.955-27.378,26.863-29,36c-2.935,16.534,3.636,28.124,8,42c-33.551,6.659-49.95,26.548-53,62
	c-0.338,3.931-0.435,12.213,0,17c2.403,26.473,11.499,45.801,23,63c24.819,37.114,66.908,67.446,116,75
	c32.001,4.924,73.307-0.913,96-8c65.536-20.466,113.226-83.428,123-154c3.514-25.367,3.87-52.422,0-77
	c-5.131-32.588-23.808-48.746-54-57c7.258-19.906,15.919-44.736,24-71c7.696-25.013,17.718-51.229,21-75
	c3.306-23.944-0.075-43.403-13-54c-7.866-6.45-27.257-10.791-39-6c-11.42,4.659-21.564,21.464-29,34
	c-24.652,41.559-40.159,89.065-57,135C319.489,194.589,309.719,164.004,298,135z"/>
<path fill="#4B4B4B" enable-background="new    " d="M305,242c-13.194-0.654-32.559-5.315-42,2c-18.239-50.428-38.7-98.632-49-157
	c2.538-10.575,7.565-21.328,21-18c20.391,21.233,28.813,52.818,39,83C284.136,182.032,295.641,212.652,305,242z"/>
<path fill="#4B4B4B" enable-background="new    " d="M394,253c-14.762-0.905-26.348-4.985-41-6c7.779-23.966,18.271-53.805,30-86
	c5.245-14.396,9.105-29.429,15-43c4.975-11.453,12.846-29.805,22-36c9.883-6.688,21.404,1.997,23,12c1.048,6.572-2.161,14.606-4,22
	c-0.903,3.632-1.101,7.831-2,11c-0.433,1.526-2.655,2.635-3,4c-3.868,15.329-7.938,30.259-13,45
	C411.562,203.477,401.858,226.762,394,253z"/>
<path fill="#4B4B4B" enable-background="new    " d="M167,404c-4.95,1.74-3.854,8.647-4,12c-0.189,4.348-0.067,9.551,1,14
	c4.229,17.627,29.203,43.092,49,50c18.54,6.47,35.653,2.417,46-8c6.913-6.959,11.365-17.051,8-33c6.884-0.115,14.537,0.536,20-1
	c0.19,32.81,5.235,60.766,35,64c4.108-8.157,1.372-14.422-1-23c-2.315-8.373-9.147-21.409-8-36c1.871-23.792,19.377-49.635,36-64
	c7.289-6.3,18.812-13.639,31-19c9.706-4.27,29.975-9.494,32-17c2.172-8.051-3.514-12.684-7-17c-44.567,0.184-107.07,0.879-126-25
	c-3.781-5.169-7.566-15.315-6-23c2.447-12.007,18.681-14.05,36-13c32.415,1.965,66.259,7.353,94,16c15.83,4.935,31.004,11.209,37,18
	c7.72,8.743,9.403,22.239,11,36c1.762,15.186,0.376,36.952-2,52c-6.296,39.878-24.98,71.845-48,96
	c-25.039,26.273-65.033,51.433-122,47c-30.232-2.354-57.096-15.117-77-30c-14.157-10.585-25.923-24.285-36-40
	c-9.285-14.479-20.346-31.553-20-55c0.093-6.315,1.599-11.834,3-16c2.314-6.879,14.936-26.234,27-26c6.949,0.135,16.183,9.925,21,15
	c11.871,12.507,21.642,23.479,32,40c3.341,5.329,11.986,17.806,11,24c-0.757,4.76-8.731,10.656-15,11
	c-9.339,0.512-20.247-7.612-26-13c-5.97-5.592-10.409-12.918-15-19C179.044,414.435,174.831,405.971,167,404z"/>
<path fill="#4B4B4B" enable-background="new    " d="M287,401c-2.886,5.114-7.29,8.71-13,11c-26.696-11.141-40.767-31.143-58-56
	c-4.078-5.882-9.492-13.625-14-22c-4.623-8.588-10.465-18.621-10-26c0.562-8.907,11.17-18.863,20-23c3.683-1.726,8.643-1.331,14,2
	c19.583,12.173,32.762,38.962,44,62C278.427,366.273,287.274,384.477,287,401z"/>
<path fill="#4B4B4B" enable-background="new    " d="M298,344c13.766,3.234,26.65,7.35,44,7c-11.53,8.136-20.575,18.758-31,28
	C307.508,366.492,302.766,355.234,298,344z"/>
</svg>
