<?xml version="1.0" encoding="utf-8"?>
<!-- Generator: Adobe Illustrator 14.0.0, SVG Export Plug-In . SVG Version: 6.00 Build 43363)  -->
<!DOCTYPE svg PUBLIC "-//W3C//DTD SVG 1.1//EN" "http://www.w3.org/Graphics/SVG/1.1/DTD/svg11.dtd">
<svg version="1.1" id="Layer_1" xmlns="http://www.w3.org/2000/svg" xmlns:xlink="http://www.w3.org/1999/xlink" x="0px" y="0px"
	 width="598.683px" height="597.637px" viewBox="0 0 598.683 597.637" enable-background="new 0 0 598.683 597.637"
	 xml:space="preserve">
<g>
	<path fill="#4B4B4B" d="M276.936,0.843c96.23-7.116,172.873,31.858,221.972,76.99c49.607,45.599,92.951,111.93,98.986,198.975
		c6.822,98.396-31.258,171.617-76.99,221.973c-46.99,51.744-113.123,91.564-199.975,97.986
		c-95.069,7.03-169.174-29.451-220.973-75.99C47.371,473.53,7.842,410.112,0.971,321.803c-7.651-98.325,30.73-170.124,75.99-220.973
		C122.167,50.041,185.056,7.636,276.936,0.843z M130.954,73.834c0,147.649,0,295.295,0,442.943c109.319,0,218.64,0,327.96,0
		c0-18.663,0-37.327,0-55.991c-86.791-2.604-179.655,2.83-265.968-2c0.216-49.21-1.286-96.701-2-144.981
		c81.323,0,162.646,0,243.97,0c0-17.998,0-35.996,0-53.994c-81.119-0.537-164.469,1.155-243.97-1
		c2.562-41.688-2.815-89.715,2-130.983c87.321,0,174.646,0,261.968,0c0-18.998,0-37.995,0-56.993c-107.318,0-214.642,0-321.96,0
		C131.698,71.244,130.911,72.123,130.954,73.834z"/>
</g>
</svg>
