<?xml version="1.0" encoding="utf-8"?>
<!-- Generator: Adobe Illustrator 14.0.0, SVG Export Plug-In . SVG Version: 6.00 Build 43363)  -->
<!DOCTYPE svg PUBLIC "-//W3C//DTD SVG 1.1//EN" "http://www.w3.org/Graphics/SVG/1.1/DTD/svg11.dtd">
<svg version="1.1" id="Layer_1" xmlns="http://www.w3.org/2000/svg" xmlns:xlink="http://www.w3.org/1999/xlink" x="0px" y="0px"
	 width="252px" height="252px" viewBox="0 0 252 252" enable-background="new 0 0 252 252" xml:space="preserve">
<g id="XMLID_2_">
	<g>
		<path fill="#878787" d="M252,113.9c0,8.07,0,16.13,0,24.2c-3.87,33.221-18.04,58.36-36.79,77.11S171.32,248.13,138.1,252
			c-8.069,0-16.129,0-24.2,0c-33.22-3.87-58.36-18.04-77.11-36.79S3.88,171.32,0,138.1c0-8.069,0-16.129,0-24.2
			C7.58,51.7,52.58,7.49,113.9,0c8.07,0,16.13,0,24.2,0c33.221,3.87,58.36,18.04,77.11,36.79S248.13,80.68,252,113.9z M201.1,208.15
			c21.351-19.23,39.471-48.61,36.79-91.73c-2.84-45.62-32.939-79.49-67.029-94.75c-20.44-9.14-45.771-11.97-69.05-7.05
			C90.82,16.94,81.04,20.5,72.07,25.2c-7.43,3.89-15.67,8.97-21.17,14.11c-0.16,0.15-2.48,1.74-1,2.52
			c16.15,0.13,32.45-1.32,43.34,4.03c2.78,1.37,6.08,3.95,8.06,5.55c0.11,0.08,1.5,3.09,2.02,1.01c0.75-3.46,0.72-7.68,2.02-10.59
			c9.92,0.33,21.15-0.66,30.24,0.51c4.66,32.3,9.05,64.86,14.61,96.26c7.5-24.419,15.979-47.859,23.689-72.07
			c-10.75-0.34-22.85,0.67-32.76-0.51c0.34-7.89-0.67-17.13,0.5-24.19c19.66,0,39.32,0,58.97,0c0.391,0.11,0.59,0.42,0.51,1.01
			c-0.909,7.35,1.19,15.76,0,23.69c-0.689,4.52-3.489,9.4-5.04,14.11c-11.729,35.44-22.25,68.93-33.77,103.82
			c12.77,0.34,26.88-0.67,38.81,0.51C201.1,192.7,201.1,200.42,201.1,208.15z M197.57,212.18c0.93-0.79,3.72-2.859,2.01-3.02
			c-21.33,0-42.67,0-64,0c-0.46-12.141-2.7-22.5-4.04-33.771c-7.72,0-15.45,0-23.18,0c-1.29,11.48-2.45,23.08-4.54,33.771
			c-7.89-0.33-17.13,0.67-24.19-0.5c3.22-23,7.82-47.29,10.08-69.561c-4.39,2.5-11.05,2.721-17.13,3.53c0,22.18,0,44.351,0,66.53
			c-7.56,0-15.12,0-22.68,0c16.14,15.42,42.42,29.229,75.09,29.229C155.11,238.39,181.11,226.22,197.57,212.18z M111.89,148.68
			c5.37,0,10.75,0,16.129,0c-2.6-18.899-4.31-38.7-8.069-56.45C116.73,110.52,114.99,130.28,111.89,148.68z M87.7,111.38
			c2.5-3.8,3.03-12.8,3.02-18.64c-0.03-15.46-2.83-26.29-17.64-25.2c-1.18,15.45-0.17,33.09-0.5,49.39
			C78.23,116.54,84.64,116.04,87.7,111.38z M47.38,206.14c-0.34-54.1,0.67-109.54-0.51-162.8c-0.83,0.07-1.13,1.1-1.51,1.52
			C28.62,63.11,13.81,85.99,12.1,116.93c-2.18,39.22,13.11,69.08,32.25,87.19C45.26,204.97,46.81,208.17,47.38,206.14z"/>
	</g>
	<g>
		<path fill="#878787" d="M252,113.9c0,8.07,0,16.13,0,24.2c-3.87,33.221-18.04,58.36-36.79,77.11S171.32,248.13,138.1,252
			c-8.069,0-16.129,0-24.2,0c-33.22-3.87-58.36-18.04-77.11-36.79S3.88,171.32,0,138.1c0-8.069,0-16.129,0-24.2
			C7.58,51.7,52.58,7.49,113.9,0c8.07,0,16.13,0,24.2,0c33.221,3.87,58.36,18.04,77.11,36.79S248.13,80.68,252,113.9z M201.1,208.15
			c21.351-19.23,39.471-48.61,36.79-91.73c-2.84-45.62-32.939-79.49-67.029-94.75c-20.44-9.14-45.771-11.97-69.05-7.05
			C90.82,16.94,81.04,20.5,72.07,25.2c-7.43,3.89-15.67,8.97-21.17,14.11c-0.16,0.15-2.48,1.74-1,2.52
			c16.15,0.13,32.45-1.32,43.34,4.03c2.78,1.37,6.08,3.95,8.06,5.55c0.11,0.08,1.5,3.09,2.02,1.01c0.75-3.46,0.72-7.68,2.02-10.59
			c9.92,0.33,21.15-0.66,30.24,0.51c4.66,32.3,9.05,64.86,14.61,96.26c7.5-24.419,15.979-47.859,23.689-72.07
			c-10.75-0.34-22.85,0.67-32.76-0.51c0.34-7.89-0.67-17.13,0.5-24.19c19.66,0,39.32,0,58.97,0c0.391,0.11,0.59,0.42,0.51,1.01
			c-0.909,7.35,1.19,15.76,0,23.69c-0.689,4.52-3.489,9.4-5.04,14.11c-11.729,35.44-22.25,68.93-33.77,103.82
			c12.77,0.34,26.88-0.67,38.81,0.51C201.1,192.7,201.1,200.42,201.1,208.15z M197.57,212.18c0.93-0.79,3.72-2.859,2.01-3.02
			c-21.33,0-42.67,0-64,0c-0.46-12.141-2.7-22.5-4.04-33.771c-7.72,0-15.45,0-23.18,0c-1.29,11.48-2.45,23.08-4.54,33.771
			c-7.89-0.33-17.13,0.67-24.19-0.5c3.22-23,7.82-47.29,10.08-69.561c-4.39,2.5-11.05,2.721-17.13,3.53c0,22.18,0,44.351,0,66.53
			c-7.56,0-15.12,0-22.68,0c16.14,15.42,42.42,29.229,75.09,29.229C155.11,238.39,181.11,226.22,197.57,212.18z M111.89,148.68
			c5.37,0,10.75,0,16.129,0c-2.6-18.899-4.31-38.7-8.069-56.45C116.73,110.52,114.99,130.28,111.89,148.68z M87.7,111.38
			c2.5-3.8,3.03-12.8,3.02-18.64c-0.03-15.46-2.83-26.29-17.64-25.2c-1.18,15.45-0.17,33.09-0.5,49.39
			C78.23,116.54,84.64,116.04,87.7,111.38z M47.38,206.14c-0.34-54.1,0.67-109.54-0.51-162.8c-0.83,0.07-1.13,1.1-1.51,1.52
			C28.62,63.11,13.81,85.99,12.1,116.93c-2.18,39.22,13.11,69.08,32.25,87.19C45.26,204.97,46.81,208.17,47.38,206.14z"/>
	</g>
</g>
</svg>
