<?xml version="1.0" encoding="utf-8"?>
<!-- Generator: Adobe Illustrator 14.0.0, SVG Export Plug-In . SVG Version: 6.00 Build 43363)  -->
<!DOCTYPE svg PUBLIC "-//W3C//DTD SVG 1.1//EN" "http://www.w3.org/Graphics/SVG/1.1/DTD/svg11.dtd">
<svg version="1.1" id="Layer_1" xmlns="http://www.w3.org/2000/svg" xmlns:xlink="http://www.w3.org/1999/xlink" x="0px" y="0px"
	 width="600px" height="600px" viewBox="0 0 600 600" enable-background="new 0 0 600 600" xml:space="preserve">
<path fill="#4B4B4B" d="M282,0c11.667,0,23.333,0,35,0c130.051,13.864,215.085,81.643,258,183c21.997,51.953,31.43,119.543,15,187
	c-14.254,58.524-41.43,103.429-79,141c-36.795,36.796-83.923,66.363-141,80c-62.318,14.89-134.161,6.869-188-16
	C82.757,532.846,13.319,445.997,0,317c0-11.667,0-23.333,0-35c3.213-38.503,13.552-79.994,29-112C74.821,75.064,159.44,12.942,282,0
	z M207,159c-15.13-5.4-41.636-2-62-2c-10.574,0-21.672,0-32,0c-19.678,0-41.699-5.857-40,13c10.408,10.805,25.522,4.119,38,6
	c6.375,0.961,15.843,4.548,20,7c20.892,12.322,22.625,42.03,21,79c-2.026,46.087-2,73.332-2,121c0,17.912-3.653,52.542,3,59
	c3.625,3.519,40.547,5.231,48,0c8.467-5.943,4.604-25.573,8-43c1.014-5.205,4.476-11.322,5-15c1.034-7.257-0.666-16.537,1-25
	c1.306-6.635,4.467-12.339,5-17c0.929-8.126-0.189-14.453,1-21c0.897-4.939,4.154-9.864,5-16c0.485-3.518-0.83-8.325,0-13
	c0.83-4.678,3.646-9.148,5-14c1.418-5.08,2.575-10.396,4-15c6.989-22.588,22.453-68.702,47-67c12.165,0.844,21.986,19.28,24,34
	c2.105,15.397,0,36.722,0,53c0,36.801,0,69.279,0,108c0,16.924-2.092,46.058,3,51c4.35,4.222,34.305,4.055,40,0
	c9.743-6.938,6.545-26.691,10-45c1.277-6.77,4.355-12.256,5-17c0.783-5.759-0.235-13.453,1-20c0.905-4.796,4.23-11.338,5-17
	c0.896-6.588-0.097-12.771,1-19c0.915-5.195,4.142-10.271,5-16c0.648-4.326-0.876-9.667,0-15c0.626-3.812,3.686-8.178,5-13
	c4.367-16.018,8.497-32.369,13-44c10.433-26.951,37.227-57.903,54-26c10.614,20.189,8,45.34,8,76c0,35.592,0,71.604,0,106
	c0,18.385-2.153,36.695,3,50c8.669,3.278,22.038,2,34,2c12.125,0,24.546,2.366,31-3c3.562-17.673,2-37.167,2-57
	c0-39.549,0-80.2,0-119c0-40.729,3.593-76.988-17-95c-21.215-18.556-55.927-9.98-77-1c-9.932,4.232-19.648,9.511-27,15
	c-8.945,6.679-14.051,17.687-25,20c-9.231-11.122-11.913-24.388-22-33c-26.369-22.513-66.994-9.391-89,5
	c-12.85,8.403-21.018,22.834-34,25C227.934,186.614,226.99,166.135,207,159z"/>
</svg>
